<?xml version="1.0" encoding="utf-8"?>
<svg xmlns="http://www.w3.org/2000/svg"	 width="514" height="486">
<linearGradient id="lg1" gradientUnits="userSpaceOnUse" x1="494" y1="6" x2="24" y2="475">
	<stop offset="0" style="stop-color:#FA2"/>
	<stop offset="1" style="stop-color:#DB6"/>
</linearGradient>
<rect x="17" y="8" fill="url(#lg1)" width="480" height="470"/>
<linearGradient id="lg2" gradientUnits="userSpaceOnUse" x1="257" y1="44" y2="439">
	<stop offset="0" style="stop-color:#630"/>
	<stop offset="1" style="stop-color:#210"/>
</linearGradient>
<path fill="url(#lg2)" d="M192.23,247.2h42.48l-21.24-82.37L192.23,247.2zM53.67,45v396h407.33V45H53.67z	 M258.026,337.462l-15.542-53.532h-57.504l-15.542,53.532h-39.372l55.432-189.263v-20.722h52.842l63.202,209.985H258.026z
M362.7,337.5h-42.5V177.7h42.5V337.5zM341.7,158.6c-12.2,0-22-9.7-22-21.8
c0-12 9.9-21.8 22-21.8s22,9.8 22,21.8C363.7,148.8 353.8,158.6 341.7,158.6z"/>
</svg>